<?xml version="1.0" encoding="iso-8859-1"?>
<!-- Generator: Adobe Illustrator 21.0.0, SVG Export Plug-In . SVG Version: 6.00 Build 0)  -->
<svg version="1.1" id="&#x56FE;&#x5C42;_1" xmlns="http://www.w3.org/2000/svg" xmlns:xlink="http://www.w3.org/1999/xlink" x="0px"
	 y="0px" viewBox="0 0 13 17" style="enable-background:new 0 0 13 17;" xml:space="preserve">
<g>
	<path style="fill:#FFFFFF;" d="M10.5,17h-8C1.1,17,0,15.9,0,14.5v-12C0,1.1,1.1,0,2.5,0h8C11.9,0,13,1.1,13,2.5v12
		C13,15.9,11.9,17,10.5,17z M2.5,1C1.7,1,1,1.7,1,2.5v12C1,15.3,1.7,16,2.5,16h8c0.8,0,1.5-0.7,1.5-1.5v-12C12,1.7,11.3,1,10.5,1
		H2.5z"/>
</g>
<g>
	<path style="fill:#FFFFFF;" d="M9.75,5.667h-6.5c-0.3,0-0.5-0.2-0.5-0.5v-2c0-0.3,0.2-0.5,0.5-0.5h6.5c0.3,0,0.5,0.2,0.5,0.5v2
		C10.25,5.467,10.05,5.667,9.75,5.667z M3.75,4.667h5.5v-1h-5.5V4.667z"/>
</g>
<g>
	<g>
		<g>
			<path style="fill:#FFFFFF;" d="M3.219,8h1.062c0.3,0,0.5-0.2,0.5-0.5S4.581,7,4.281,7H3.219c-0.3,0-0.5,0.2-0.5,0.5
				S2.919,8,3.219,8z M4.281,10H3.219c-0.3,0-0.5,0.2-0.5,0.5s0.2,0.5,0.5,0.5h1.062c0.3,0,0.5-0.2,0.5-0.5S4.581,10,4.281,10z
				 M4.281,13H3.219c-0.3,0-0.5,0.2-0.5,0.5s0.2,0.5,0.5,0.5h1.062c0.3,0,0.5-0.2,0.5-0.5S4.581,13,4.281,13z"/>
		</g>
	</g>
	<g>
		<g>
			<path style="fill:#FFFFFF;" d="M7.031,10H5.969c-0.3,0-0.5,0.2-0.5,0.5s0.2,0.5,0.5,0.5h1.062c0.3,0,0.5-0.2,0.5-0.5
				S7.331,10,7.031,10z M5.969,8h1.062c0.3,0,0.5-0.2,0.5-0.5S7.331,7,7.031,7H5.969c-0.3,0-0.5,0.2-0.5,0.5S5.669,8,5.969,8z
				 M7.031,13H5.969c-0.3,0-0.5,0.2-0.5,0.5s0.2,0.5,0.5,0.5h1.062c0.3,0,0.5-0.2,0.5-0.5S7.331,13,7.031,13z"/>
		</g>
	</g>
	<g>
		<g>
			<path style="fill:#FFFFFF;" d="M8.719,8h1.062c0.3,0,0.5-0.2,0.5-0.5s-0.2-0.5-0.5-0.5H8.719c-0.3,0-0.5,0.2-0.5,0.5
				S8.419,8,8.719,8z M9.781,13H8.719c-0.3,0-0.5,0.2-0.5,0.5s0.2,0.5,0.5,0.5h1.062c0.3,0,0.5-0.2,0.5-0.5S10.081,13,9.781,13z
				 M9.781,10H8.719c-0.3,0-0.5,0.2-0.5,0.5s0.2,0.5,0.5,0.5h1.062c0.3,0,0.5-0.2,0.5-0.5S10.081,10,9.781,10z"/>
		</g>
	</g>
</g>
</svg>
