<?xml version="1.0" encoding="iso-8859-1"?>
<!-- Generator: Adobe Illustrator 21.0.0, SVG Export Plug-In . SVG Version: 6.00 Build 0)  -->
<svg version="1.1" id="Instagram_w_x2F__circle" xmlns="http://www.w3.org/2000/svg" xmlns:xlink="http://www.w3.org/1999/xlink"
	 x="0px" y="0px" viewBox="0 0 10 10" style="enable-background:new 0 0 10 10;" xml:space="preserve">
<path style="fill:#FFFFFF;" d="M8.889,0H1.111C0.5,0,0,0.5,0,1.111v7.778C0,9.5,0.5,10,1.111,10h7.778C9.5,10,10,9.5,10,8.889V1.111
	C10,0.5,9.5,0,8.889,0z M7.099,1.401C7.099,1.235,7.234,1.1,7.4,1.1h1.199C8.765,1.1,8.9,1.235,8.9,1.401V2.6
	c0,0.165-0.135,0.3-0.301,0.3H7.4c-0.165,0-0.3-0.135-0.301-0.3V1.401z M5,3c1.104,0,2,0.896,2,2S6.104,7,5,7S3,6.104,3,5
	S3.896,3,5,3z M9,8.497C9,8.775,8.775,9,8.498,9H1.503C1.225,9,1,8.775,1,8.497V4.5h1.049C2.018,4.662,2,4.829,2,5
	c0,1.657,1.343,3,3,3s3-1.343,3-3c0-0.171-0.018-0.338-0.049-0.5H9V8.497z"/>
</svg>
