<?xml version="1.0" encoding="iso-8859-1"?>
<!-- Generator: Adobe Illustrator 21.0.0, SVG Export Plug-In . SVG Version: 6.00 Build 0)  -->
<svg version="1.1" id="_x2014_&#xCE;&#xD3;&#xC8;_x5F_1"
	 xmlns="http://www.w3.org/2000/svg" xmlns:xlink="http://www.w3.org/1999/xlink" x="0px" y="0px" viewBox="0 0 166.414 43.789"
	 style="enable-background:new 0 0 166.414 43.789;" xml:space="preserve">
<g>
	<path style="fill:#FFFFFF;" d="M16.595,29.82H0.154v-1.139c0.566,0,1.054-0.021,1.451-0.071c0.404-0.05,0.793-0.127,1.161-0.241
		c0.566-0.163,0.977-0.481,1.225-0.955c0.248-0.467,0.375-1.168,0.375-2.095V4.461c0-1.012-0.333-1.706-0.998-2.074
		C2.986,2.175,2.526,2.012,2.002,1.884C1.478,1.764,0.862,1.7,0.155,1.7V0.56h17.127c2.236,0,4.282,0.361,6.122,1.09
		c1.848,0.722,3.461,1.762,4.841,3.121C29.59,6.08,30.63,7.658,31.38,9.499c0.368,0.941,0.651,1.876,0.828,2.817
		s0.269,1.968,0.269,3.072c0,2.06-0.375,3.957-1.118,5.704c-0.75,1.741-1.826,3.263-3.234,4.572
		c-1.408,1.302-3.114,2.329-5.103,3.079c-0.991,0.354-2.01,0.63-3.057,0.807C18.923,29.728,17.798,29.82,16.595,29.82L16.595,29.82z
		 M6.417,25.446V6.287c0-1.649-0.149-2.81-0.453-3.482C5.66,2.125,4.867,1.786,3.593,1.786c0.574,0.276,0.956,0.651,1.154,1.118
		c0.206,0.474,0.305,1.161,0.305,2.074V24.93c0,0.87-0.043,1.535-0.134,1.996c-0.092,0.467-0.234,0.828-0.425,1.083
		c-0.199,0.255-0.496,0.481-0.899,0.672c1.026,0,1.763-0.248,2.201-0.743C6.212,27.435,6.417,26.607,6.417,25.446L6.417,25.446z
		 M9.588,7.696v16.731c0,1.189,0.085,2.06,0.247,2.604c0.17,0.545,0.559,0.963,1.182,1.253c0.665,0.262,1.67,0.396,3.029,0.396
		c1.521,0,2.866-0.148,4.041-0.453c1.175-0.304,2.307-0.856,3.397-1.642c1.274-0.913,2.265-1.897,2.98-2.951
		c0.708-1.062,1.231-2.265,1.564-3.61c0.333-1.352,0.495-2.852,0.495-4.515c0-4.933-1.444-8.628-4.332-11.09
		c-1.118-0.956-2.385-1.649-3.794-2.074c-1.408-0.432-3.064-0.644-4.954-0.644c-1.288,0-2.194,0.191-2.725,0.573
		C10.18,2.649,9.854,3.201,9.734,3.923C9.692,4.277,9.656,4.765,9.628,5.381C9.602,5.997,9.588,6.768,9.588,7.696L9.588,7.696z
		 M19.27,28.68c1.755-0.17,3.341-0.772,4.749-1.805c1.409-1.04,2.527-2.513,3.355-4.431c0.828-1.911,1.246-4.197,1.246-6.851
		c0-0.956-0.049-1.861-0.142-2.732c-0.099-0.878-0.255-1.706-0.46-2.491c-0.375-1.607-0.941-2.987-1.699-4.148
		c-0.757-1.161-1.691-2.102-2.796-2.817c-0.283-0.184-0.594-0.361-0.949-0.531c-0.347-0.177-0.701-0.326-1.047-0.446
		c-0.687-0.205-1.444-0.396-2.258-0.559c5.294,2.074,7.941,6.688,7.941,13.851c0,2.151-0.276,4.055-0.828,5.697
		c-0.552,1.649-1.422,3.079-2.611,4.282C22.582,26.911,21.082,27.902,19.27,28.68L19.27,28.68z M36.093,15.078
		c0-0.623,0.028-1.224,0.085-1.812c0.057-0.587,0.142-1.168,0.269-1.734c0.233-1.161,0.58-2.237,1.033-3.227
		c0.46-0.984,1.026-1.918,1.713-2.796s1.451-1.663,2.293-2.357c0.913-0.743,1.875-1.345,2.887-1.79
		c1.019-0.453,2.159-0.785,3.412-1.019c1.26-0.227,2.548-0.34,3.857-0.34c2.314,0,4.423,0.397,6.349,1.182
		c1.918,0.786,3.56,1.883,4.912,3.277c1.359,1.394,2.392,3.008,3.114,4.841c0.715,1.833,1.076,3.744,1.076,5.733
		c0,2.159-0.396,4.169-1.189,6.044c-0.8,1.876-1.925,3.504-3.383,4.891c-1.458,1.394-3.178,2.477-5.153,3.248
		c-1.974,0.771-4.083,1.161-6.327,1.161c-2.109,0-4.098-0.375-5.945-1.118c-1.854-0.75-3.447-1.798-4.785-3.142
		c-1.331-1.345-2.371-2.98-3.121-4.905c-0.368-0.955-0.651-1.925-0.828-2.923C36.185,17.293,36.093,16.224,36.093,15.078
		L36.093,15.078z M41.833,12.876c0,2.392,0.248,4.607,0.743,6.639c0.503,2.032,1.21,3.773,2.13,5.216
		c0.92,1.444,2.017,2.555,3.298,3.326c1.274,0.772,2.64,1.161,4.091,1.161c1.26,0,2.441-0.269,3.546-0.8
		c1.104-0.531,2.073-1.324,2.901-2.385c0.828-1.055,1.487-2.385,1.961-3.977c0.474-1.599,0.715-3.411,0.715-5.443
		c0-2.258-0.269-4.36-0.8-6.306c-0.531-1.947-1.267-3.588-2.215-4.926c-0.948-1.33-2.067-2.371-3.348-3.107
		c-1.288-0.743-2.668-1.111-4.147-1.111c-1.274,0-2.456,0.276-3.56,0.821c-1.097,0.545-2.038,1.331-2.817,2.364
		c-0.778,1.026-1.394,2.279-1.833,3.744C42.053,9.557,41.833,11.15,41.833,12.876L41.833,12.876z M43.786,2.303
		c-2.279,1.416-4.02,3.213-5.216,5.407c-1.196,2.187-1.791,4.657-1.791,7.41c0,2.293,0.389,4.381,1.161,6.249
		c0.771,1.876,1.911,3.489,3.411,4.834c1.501,1.352,3.369,2.4,5.605,3.143c-2.711-1.38-4.862-3.284-6.469-5.704
		c-1.606-2.421-2.406-5.386-2.406-8.896c0-1.727,0.212-3.313,0.63-4.749c0.425-1.437,1.048-2.76,1.883-3.971
		C41.423,4.815,42.484,3.577,43.786,2.303L43.786,2.303z M54.608,1.453c1.564,0.828,2.888,1.974,3.978,3.432
		c1.097,1.458,1.925,3.206,2.491,5.237c0.276,1.033,0.481,2.095,0.623,3.192c0.135,1.09,0.205,2.258,0.205,3.503
		c0,2.307-0.318,4.31-0.956,6.009c-0.318,0.87-0.687,1.67-1.118,2.385c-0.425,0.722-0.935,1.415-1.529,2.095
		c1.161-0.856,2.102-1.826,2.817-2.902c0.722-1.076,1.253-2.322,1.599-3.723c0.347-1.401,0.517-2.944,0.517-4.636
		c0-1.239-0.085-2.421-0.248-3.546c-0.17-1.119-0.432-2.208-0.785-3.27c-0.665-2.06-1.649-3.772-2.951-5.132
		C57.956,2.734,56.406,1.857,54.608,1.453L54.608,1.453z M88.573,22.757l9.059-22.195h8.953v1.14c-1.408,0-2.392,0.177-2.944,0.538
		c-0.552,0.333-0.885,0.828-0.991,1.494c-0.042,0.318-0.078,0.778-0.106,1.373s-0.043,1.331-0.043,2.215v17.92
		c0,0.92,0.12,1.614,0.361,2.074c0.241,0.453,0.637,0.786,1.175,0.991c0.347,0.113,0.722,0.205,1.139,0.269
		c0.41,0.071,0.885,0.106,1.408,0.106v1.139H93.215v-1.139c1.316,0,2.265-0.163,2.859-0.488s0.955-0.75,1.083-1.274
		c0.05-0.276,0.092-0.616,0.12-1.026c0.028-0.41,0.042-0.948,0.042-1.628V4.258L87.014,29.822h-1.203L75.628,5.063v16.979
		c0,1.925,0.361,3.411,1.076,4.459c0.722,1.054,1.932,1.776,3.63,2.18v1.139H69.845v-1.139c1.479-0.156,2.619-0.729,3.419-1.734
		c0.8-0.998,1.203-2.406,1.203-4.218V3.485c-0.552-0.623-1.231-1.083-2.031-1.387c-0.403-0.155-0.8-0.255-1.203-0.311
		c-0.396-0.057-0.863-0.085-1.387-0.085v-1.14h9.47L88.573,22.757L88.573,22.757z M99.331,25.029V5.021
		c0-1.607,0.127-2.711,0.375-3.319c-0.517,0-0.906,0.156-1.182,0.474c-0.226,0.255-0.368,0.623-0.439,1.125L98.007,5.58v19.987
		c0,0.998-0.099,1.677-0.304,2.046c-0.198,0.368-0.609,0.722-1.232,1.069h0.722c0.941,0,1.536-0.276,1.777-0.821
		C99.211,27.314,99.331,26.373,99.331,25.029L99.331,25.029z M73.845,1.701h-0.764c0.842,0.332,1.508,0.785,1.996,1.373
		c0.495,0.581,0.998,1.5,1.529,2.76l9.597,22.846c0.304-0.566,0.46-1.048,0.46-1.451c0-0.368-0.156-0.927-0.467-1.656L77.958,5.537
		c-0.503-1.295-1.04-2.265-1.621-2.895S74.928,1.701,73.845,1.701L73.845,1.701z M72.231,28.68h4.374
		c-0.481-0.248-0.892-0.609-1.225-1.076c-0.29-0.46-0.516-1.005-0.686-1.642c-0.191,0.566-0.488,1.062-0.878,1.486
		C73.421,27.867,72.897,28.277,72.231,28.68L72.231,28.68z M109.975,15.078c0-0.623,0.029-1.224,0.085-1.812
		c0.057-0.587,0.142-1.168,0.269-1.734c0.233-1.161,0.58-2.237,1.033-3.227c0.46-0.984,1.026-1.918,1.713-2.796
		s1.451-1.663,2.293-2.357c0.913-0.743,1.875-1.345,2.887-1.79c1.02-0.453,2.159-0.785,3.411-1.019
		c1.26-0.227,2.548-0.34,3.857-0.34c2.314,0,4.423,0.397,6.349,1.182c1.918,0.786,3.56,1.883,4.912,3.277
		c1.359,1.394,2.392,3.008,3.114,4.841c0.715,1.833,1.076,3.744,1.076,5.733c0,2.159-0.396,4.169-1.189,6.044
		c-0.8,1.876-1.925,3.504-3.383,4.891c-1.458,1.394-3.178,2.477-5.153,3.248c-1.974,0.771-4.084,1.161-6.327,1.161
		c-2.109,0-4.098-0.375-5.945-1.118c-1.854-0.75-3.447-1.798-4.785-3.142c-1.331-1.345-2.371-2.98-3.121-4.905
		c-0.368-0.955-0.651-1.925-0.828-2.923C110.068,17.293,109.975,16.224,109.975,15.078L109.975,15.078z M115.715,12.876
		c0,2.392,0.248,4.607,0.743,6.639c0.503,2.032,1.21,3.773,2.13,5.216c0.92,1.444,2.017,2.555,3.298,3.326
		c1.274,0.772,2.64,1.161,4.091,1.161c1.26,0,2.441-0.269,3.546-0.8c1.104-0.531,2.073-1.324,2.901-2.385
		c0.828-1.055,1.487-2.385,1.961-3.977c0.474-1.599,0.715-3.411,0.715-5.443c0-2.258-0.269-4.36-0.8-6.306
		c-0.531-1.947-1.267-3.588-2.215-4.926c-0.949-1.33-2.067-2.371-3.348-3.107c-1.288-0.743-2.668-1.111-4.147-1.111
		c-1.274,0-2.456,0.276-3.56,0.821c-1.097,0.545-2.038,1.331-2.817,2.364c-0.778,1.026-1.394,2.279-1.833,3.744
		C115.935,9.557,115.715,11.15,115.715,12.876L115.715,12.876z M117.669,2.303c-2.279,1.416-4.02,3.213-5.216,5.407
		c-1.196,2.187-1.791,4.657-1.791,7.41c0,2.293,0.389,4.381,1.161,6.249c0.771,1.876,1.911,3.489,3.411,4.834
		c1.501,1.352,3.369,2.4,5.605,3.143c-2.711-1.38-4.862-3.284-6.469-5.704c-1.606-2.421-2.406-5.386-2.406-8.896
		c0-1.727,0.212-3.313,0.63-4.749c0.425-1.437,1.048-2.76,1.883-3.971C115.305,4.815,116.366,3.577,117.669,2.303L117.669,2.303z
		 M128.49,1.453c1.564,0.828,2.888,1.974,3.978,3.432c1.097,1.458,1.925,3.206,2.491,5.237c0.276,1.033,0.481,2.095,0.623,3.192
		c0.135,1.09,0.205,2.258,0.205,3.503c0,2.307-0.318,4.31-0.956,6.009c-0.318,0.87-0.687,1.67-1.118,2.385
		c-0.425,0.722-0.935,1.415-1.529,2.095c1.161-0.856,2.102-1.826,2.817-2.902c0.722-1.076,1.253-2.322,1.599-3.723
		c0.347-1.401,0.517-2.944,0.517-4.636c0-1.239-0.085-2.421-0.248-3.546c-0.17-1.119-0.432-2.208-0.785-3.27
		c-0.665-2.06-1.649-3.772-2.951-5.132C131.838,2.734,130.288,1.857,128.49,1.453L128.49,1.453z M145.391,19.288h1.366
		c0.736,2.159,1.642,3.985,2.732,5.485c1.083,1.493,2.258,2.604,3.532,3.326c1.274,0.715,2.591,1.076,3.956,1.076
		c1.72,0,3.192-0.538,4.431-1.621c1.238-1.076,1.854-2.456,1.854-4.14c0-1.592-0.403-2.817-1.203-3.673
		c-0.8-0.857-1.769-1.472-2.909-1.833c-1.146-0.368-2.654-0.701-4.537-1.005c-1.876-0.304-3.185-0.588-3.914-0.85
		c-1.203-0.418-2.223-0.991-3.057-1.713c-0.835-0.729-1.487-1.592-1.94-2.604c-0.205-0.51-0.368-1.034-0.481-1.571
		c-0.106-0.545-0.163-1.111-0.163-1.706c0-1.104,0.191-2.166,0.566-3.178c0.382-1.019,0.927-1.925,1.635-2.718
		c0.715-0.793,1.578-1.423,2.591-1.876C150.862,0.227,151.987,0,153.233,0c0.92,0,2.031,0.127,3.319,0.382s2.229,0.382,2.824,0.382
		c0.743,0,1.451-0.163,2.109-0.495h1.571l0.891,8.521h-1.451c-1.345-2.541-2.767-4.48-4.261-5.811
		c-1.486-1.338-3.22-2.003-5.209-2.003c-0.991,0-1.918,0.234-2.775,0.693c-0.849,0.467-1.536,1.104-2.053,1.932
		c-0.517,0.821-0.779,1.713-0.779,2.682c0,1.38,0.46,2.435,1.387,3.149c0.927,0.722,2.322,1.281,4.19,1.678l4.954,0.955
		c1.479,0.248,2.64,0.588,3.489,1.019c1.585,0.771,2.817,1.84,3.68,3.213c0.863,1.366,1.295,2.916,1.295,4.643
		c0,1.656-0.396,3.199-1.182,4.621c-0.786,1.423-1.918,2.576-3.39,3.454s-3.093,1.316-4.862,1.316c-1.026,0-1.805-0.078-2.336-0.24
		c-0.531-0.156-1.408-0.453-2.633-0.892c-1.225-0.432-2.159-0.651-2.81-0.651c-1.09,0-1.968,0.425-2.633,1.267h-1.182V19.288
		H145.391z M161.712,5.87l-0.687-3.956c-0.488,0.148-0.941,0.219-1.366,0.219c-0.545,0-1.083-0.071-1.621-0.219
		c0.538,0.34,1.026,0.743,1.451,1.203c0.191,0.205,0.403,0.446,0.63,0.722c0.234,0.276,0.453,0.566,0.68,0.871
		C161.252,5.332,161.556,5.721,161.712,5.87L161.712,5.87z M146.078,23.146v5.535c0.389-0.51,0.743-0.842,1.055-0.984
		c0.318-0.148,0.863-0.219,1.62-0.219l-0.998-1.182l-0.743-1.139C146.708,24.646,146.396,23.974,146.078,23.146L146.078,23.146z
		 M146.078,6.04c-0.234,1.062-0.354,1.911-0.354,2.548c0,0.708,0.127,1.437,0.375,2.187c0.247,0.75,0.609,1.451,1.075,2.095
		c0.467,0.644,1.026,1.182,1.657,1.628c0.821,0.538,1.712,0.934,2.696,1.182l4.296,0.8c1.904,0.29,3.213,0.588,3.914,0.892
		c1.33,0.474,2.364,1.21,3.1,2.215c0.743,0.998,1.111,2.173,1.111,3.51c0,1.012-0.283,2.067-0.849,3.157
		c1.133-1.175,1.699-2.548,1.699-4.126c0-1.614-0.418-2.895-1.246-3.829c-0.828-0.927-1.862-1.621-3.107-2.081
		c-1.246-0.453-2.944-0.87-5.103-1.245c-2.151-0.368-3.249-0.573-3.27-0.602c-1.967-0.495-3.453-1.373-4.473-2.64
		c-1.012-1.267-1.521-2.718-1.521-4.367V6.6V6.04L146.078,6.04z"/>
	<path style="fill:#FFFFFF;" d="M4.142,37.581H2.597c-0.036,0.563-0.085,1.043-0.143,1.438c-0.059,0.397-0.128,0.729-0.207,0.997
		s-0.169,0.483-0.273,0.644c-0.102,0.161-0.216,0.287-0.34,0.379h2.508L4.142,37.581L4.142,37.581z M5.893,41.039l-0.06,1.993H4.956
		v-1.257H0.922v1.257H0.057L0,41.039h0.077c0.141,0,0.273-0.02,0.397-0.06c0.126-0.038,0.241-0.113,0.348-0.223
		c0.107-0.109,0.205-0.262,0.295-0.456c0.089-0.196,0.17-0.448,0.243-0.758c0.072-0.308,0.134-0.684,0.186-1.126
		c0.053-0.443,0.098-0.966,0.136-1.571h3.417v4.194H5.893L5.893,41.039z M12.967,36.845v3.472l2.414-3.472h0.914v4.93h-0.96v-3.472
		l-2.414,3.472h-0.915v-4.93H12.967L12.967,36.845z M22.955,40.892c0.162,0.039,0.333,0.074,0.518,0.102
		c0.184,0.03,0.365,0.055,0.546,0.079c0.181,0.023,0.354,0.04,0.521,0.052c0.167,0.012,0.316,0.017,0.45,0.017
		c0.312,0,0.572-0.019,0.779-0.054c0.209-0.037,0.372-0.087,0.496-0.154c0.122-0.067,0.211-0.149,0.262-0.246
		c0.05-0.098,0.077-0.205,0.077-0.327c0-0.117-0.023-0.224-0.07-0.322c-0.045-0.096-0.128-0.181-0.247-0.253
		c-0.12-0.072-0.282-0.128-0.489-0.166c-0.205-0.04-0.468-0.058-0.788-0.058h-1.355v-0.664h1.351c0.278,0,0.508-0.017,0.685-0.049
		c0.179-0.034,0.32-0.08,0.421-0.142c0.104-0.062,0.173-0.138,0.211-0.227c0.035-0.089,0.054-0.189,0.054-0.303
		c0-0.112-0.022-0.211-0.069-0.298c-0.045-0.086-0.122-0.159-0.228-0.221c-0.107-0.06-0.248-0.107-0.425-0.139
		C25.478,37.485,25.26,37.47,25,37.47c-0.288,0-0.602,0.017-0.943,0.054c-0.342,0.035-0.685,0.089-1.026,0.158v-0.723
		c0.151-0.03,0.313-0.057,0.488-0.084c0.175-0.025,0.352-0.047,0.532-0.064c0.179-0.017,0.359-0.029,0.536-0.039
		c0.179-0.01,0.348-0.015,0.51-0.015c0.435,0,0.796,0.032,1.086,0.096c0.291,0.064,0.525,0.152,0.702,0.268
		c0.175,0.114,0.301,0.25,0.374,0.408c0.074,0.158,0.109,0.329,0.109,0.515c0,0.138-0.021,0.268-0.066,0.391
		c-0.043,0.124-0.111,0.233-0.203,0.332s-0.209,0.181-0.35,0.251c-0.141,0.069-0.312,0.118-0.51,0.146
		c0.198,0.027,0.382,0.071,0.552,0.131c0.169,0.06,0.314,0.141,0.438,0.242c0.122,0.099,0.22,0.218,0.291,0.355
		c0.072,0.137,0.107,0.295,0.107,0.471c0,0.216-0.047,0.418-0.141,0.602c-0.092,0.184-0.246,0.344-0.459,0.476
		c-0.214,0.132-0.495,0.236-0.845,0.312c-0.348,0.075-0.777,0.114-1.283,0.114c-0.135,0-0.286-0.005-0.45-0.013
		c-0.163-0.007-0.333-0.019-0.506-0.034c-0.175-0.015-0.348-0.033-0.516-0.053c-0.169-0.022-0.327-0.047-0.474-0.077v-0.798
		C22.953,40.892,22.955,40.892,22.955,40.892z M37.832,41.775l-0.021-0.664c-0.301,0.266-0.608,0.458-0.918,0.575
		c-0.31,0.119-0.636,0.178-0.978,0.178c-0.316,0-0.587-0.037-0.811-0.109c-0.224-0.072-0.409-0.171-0.554-0.297
		s-0.252-0.275-0.32-0.444c-0.068-0.171-0.102-0.355-0.102-0.555c0-0.494,0.207-0.882,0.619-1.162
		c0.414-0.28,1.025-0.421,1.833-0.421h1.148v-0.431c0-0.292-0.105-0.525-0.314-0.701c-0.211-0.174-0.531-0.263-0.959-0.263
		c-0.312,0-0.621,0.032-0.924,0.094s-0.615,0.151-0.939,0.264v-0.771c0.121-0.039,0.256-0.077,0.405-0.114
		c0.148-0.038,0.307-0.072,0.472-0.102c0.164-0.028,0.337-0.052,0.517-0.07c0.181-0.018,0.362-0.027,0.546-0.027
		c0.335,0,0.636,0.032,0.903,0.097c0.269,0.067,0.497,0.166,0.681,0.3c0.187,0.134,0.329,0.303,0.427,0.506
		c0.1,0.203,0.149,0.442,0.149,0.717v3.398h-0.86C37.832,41.773,37.832,41.775,37.832,41.775z M37.728,39.53h-1.22
		c-0.239,0-0.444,0.022-0.617,0.064c-0.173,0.043-0.314,0.104-0.423,0.183c-0.111,0.077-0.192,0.173-0.247,0.282
		c-0.053,0.111-0.079,0.233-0.079,0.37c0,0.095,0.017,0.186,0.049,0.273c0.034,0.087,0.086,0.164,0.159,0.231
		c0.074,0.067,0.17,0.119,0.286,0.159c0.118,0.039,0.262,0.059,0.431,0.059c0.22,0,0.472-0.06,0.758-0.179
		c0.284-0.119,0.585-0.308,0.901-0.567V39.53H37.728z M46.488,36.845v3.472l2.414-3.472h0.915v4.93h-0.96v-3.472l-2.414,3.472
		h-0.915v-4.93H46.488L46.488,36.845z M49.365,34.944c0,0.193-0.042,0.365-0.124,0.514c-0.082,0.151-0.2,0.28-0.348,0.386
		c-0.149,0.107-0.328,0.188-0.536,0.243c-0.211,0.057-0.443,0.084-0.694,0.084c-0.295,0-0.546-0.027-0.757-0.084
		c-0.209-0.055-0.38-0.136-0.515-0.243c-0.134-0.105-0.231-0.235-0.294-0.386c-0.064-0.149-0.094-0.322-0.094-0.514h0.871
		c0,0.094,0.011,0.182,0.038,0.265c0.026,0.082,0.069,0.154,0.13,0.218c0.06,0.063,0.143,0.114,0.244,0.151
		c0.104,0.035,0.232,0.054,0.386,0.054c0.158,0,0.29-0.019,0.395-0.054c0.105-0.037,0.188-0.087,0.25-0.151s0.107-0.136,0.134-0.218
		c0.024-0.082,0.038-0.171,0.038-0.265H49.365L49.365,34.944z M61.073,41.775h-0.96v-2.181h-2.529v2.181h-0.96v-4.93h0.96v2.003
		h2.529v-2.003h0.96V41.775L61.073,41.775z M73.18,36.845v3.472l2.414-3.472h0.914v4.93h-0.96v-3.472l-2.414,3.472h-0.915v-4.93
		H73.18L73.18,36.845z M87.765,41.775h-0.96v-2.181h-2.529v2.181h-0.96v-4.93h0.96v2.003h2.529v-2.003h0.96V41.775L87.765,41.775z
		 M99.296,37.581h-2.1v4.195h-0.969v-4.195h-2.102v-0.736h5.171V37.581L99.296,37.581z M110.338,39.049
		c0,0.121-0.002,0.223-0.006,0.305c-0.004,0.08-0.009,0.158-0.017,0.23h-3.885c0,0.504,0.158,0.892,0.474,1.162
		s0.772,0.405,1.368,0.405c0.16,0,0.322-0.005,0.484-0.016c0.162-0.012,0.318-0.027,0.469-0.047s0.295-0.042,0.433-0.067
		c0.139-0.024,0.266-0.05,0.384-0.08v0.702c-0.261,0.065-0.555,0.119-0.884,0.159c-0.329,0.042-0.67,0.062-1.024,0.062
		c-0.474,0-0.881-0.057-1.223-0.173c-0.342-0.114-0.623-0.28-0.841-0.498c-0.218-0.218-0.38-0.484-0.486-0.801
		c-0.103-0.315-0.156-0.674-0.156-1.073c0-0.347,0.056-0.676,0.167-0.984c0.113-0.31,0.276-0.582,0.491-0.816
		c0.214-0.233,0.478-0.419,0.79-0.557c0.312-0.137,0.668-0.206,1.065-0.206c0.386,0,0.726,0.054,1.025,0.163
		c0.297,0.107,0.548,0.26,0.753,0.457c0.203,0.2,0.358,0.439,0.463,0.723C110.286,38.382,110.338,38.699,110.338,39.049
		L110.338,39.049z M109.341,38.927c0.011-0.22-0.014-0.421-0.072-0.602c-0.058-0.182-0.15-0.339-0.273-0.469
		c-0.124-0.131-0.277-0.233-0.461-0.307s-0.397-0.111-0.64-0.111c-0.209,0-0.401,0.037-0.572,0.109
		c-0.173,0.07-0.322,0.173-0.448,0.303c-0.124,0.131-0.226,0.289-0.303,0.471c-0.077,0.184-0.124,0.385-0.143,0.605L109.341,38.927
		C109.341,38.926,109.341,38.927,109.341,38.927z M121.566,39.222c0,0.438-0.067,0.822-0.205,1.148
		c-0.139,0.327-0.33,0.6-0.572,0.815c-0.243,0.216-0.529,0.379-0.86,0.486c-0.329,0.109-0.689,0.163-1.075,0.163
		c-0.177,0-0.352-0.008-0.527-0.023c-0.175-0.017-0.352-0.045-0.531-0.084v2.062h-0.96v-6.943h0.854l0.06,0.825
		c0.276-0.337,0.57-0.575,0.883-0.711c0.312-0.136,0.651-0.203,1.014-0.203c0.316,0,0.593,0.058,0.832,0.176
		c0.239,0.119,0.44,0.285,0.602,0.5c0.161,0.214,0.282,0.473,0.363,0.776C121.527,38.509,121.566,38.848,121.566,39.222
		L121.566,39.222z M120.586,39.26c0-0.258-0.021-0.496-0.064-0.713c-0.041-0.216-0.109-0.4-0.202-0.555s-0.209-0.273-0.352-0.36
		s-0.314-0.131-0.513-0.131c-0.121,0-0.245,0.017-0.369,0.052c-0.124,0.033-0.254,0.092-0.388,0.171
		c-0.135,0.081-0.277,0.188-0.425,0.32s-0.308,0.297-0.476,0.493v2.392c0.175,0.065,0.362,0.117,0.555,0.154
		c0.196,0.038,0.386,0.057,0.574,0.057c0.518,0,0.924-0.156,1.219-0.47C120.439,40.36,120.586,39.889,120.586,39.26L120.586,39.26z
		 M131.737,40.238c0-0.137-0.028-0.258-0.085-0.36c-0.056-0.104-0.149-0.191-0.273-0.262c-0.126-0.071-0.288-0.122-0.485-0.16
		c-0.198-0.035-0.437-0.053-0.717-0.053c-0.177,0-0.369,0.001-0.578,0.005c-0.211,0.003-0.408,0.008-0.596,0.015v1.644
		c0.188,0.017,0.369,0.028,0.544,0.037c0.173,0.008,0.365,0.012,0.575,0.012c0.308,0,0.566-0.017,0.772-0.05
		c0.205-0.035,0.37-0.087,0.497-0.158c0.124-0.07,0.213-0.161,0.267-0.273C131.711,40.524,131.737,40.392,131.737,40.238
		L131.737,40.238z M129.003,38.706c0.092-0.003,0.184-0.005,0.277-0.007c0.09-0.002,0.184-0.003,0.28-0.005s0.196-0.003,0.303-0.005
		s0.222-0.003,0.348-0.003c0.852,0,1.485,0.131,1.899,0.39c0.414,0.26,0.621,0.64,0.621,1.142c0,0.538-0.22,0.94-0.657,1.21
		c-0.436,0.272-1.099,0.406-1.985,0.406c-0.401,0-0.764-0.007-1.088-0.022c-0.325-0.015-0.645-0.04-0.958-0.075v-4.892h0.96
		L129.003,38.706L129.003,38.706z M143.859,39.049c0,0.121-0.002,0.223-0.006,0.305c-0.003,0.08-0.009,0.158-0.017,0.23h-3.885
		c0,0.504,0.158,0.892,0.474,1.162s0.772,0.405,1.368,0.405c0.16,0,0.322-0.005,0.484-0.016c0.162-0.012,0.318-0.027,0.468-0.047
		c0.151-0.02,0.295-0.042,0.433-0.067c0.139-0.024,0.265-0.05,0.384-0.08v0.702c-0.261,0.065-0.555,0.119-0.884,0.159
		c-0.329,0.042-0.67,0.062-1.024,0.062c-0.474,0-0.881-0.057-1.223-0.173c-0.342-0.114-0.623-0.28-0.841-0.498
		c-0.219-0.218-0.38-0.484-0.486-0.801c-0.103-0.315-0.156-0.674-0.156-1.073c0-0.347,0.057-0.676,0.168-0.984
		c0.113-0.31,0.277-0.582,0.491-0.816c0.215-0.233,0.478-0.419,0.79-0.557c0.312-0.137,0.668-0.206,1.065-0.206
		c0.385,0,0.726,0.054,1.025,0.163c0.298,0.107,0.548,0.26,0.753,0.457c0.203,0.2,0.357,0.439,0.463,0.723
		C143.806,38.382,143.859,38.699,143.859,39.049L143.859,39.049z M142.862,38.927c0.011-0.22-0.013-0.421-0.072-0.602
		c-0.058-0.182-0.15-0.339-0.273-0.469c-0.124-0.131-0.277-0.233-0.461-0.307s-0.397-0.111-0.64-0.111
		c-0.209,0-0.401,0.037-0.572,0.109c-0.173,0.07-0.322,0.173-0.448,0.303c-0.124,0.131-0.226,0.289-0.303,0.471
		c-0.077,0.184-0.124,0.385-0.143,0.605L142.862,38.927L142.862,38.927z M155.087,39.222c0,0.438-0.068,0.822-0.205,1.148
		c-0.139,0.327-0.329,0.6-0.572,0.815c-0.243,0.216-0.529,0.379-0.86,0.486c-0.329,0.109-0.689,0.163-1.074,0.163
		c-0.177,0-0.352-0.008-0.527-0.023c-0.175-0.017-0.352-0.045-0.531-0.084v2.062h-0.96v-6.943h0.854l0.06,0.825
		c0.277-0.337,0.57-0.575,0.883-0.711c0.312-0.136,0.651-0.203,1.014-0.203c0.316,0,0.593,0.058,0.832,0.176
		c0.239,0.119,0.44,0.285,0.602,0.5c0.162,0.214,0.282,0.473,0.363,0.776C155.047,38.509,155.087,38.848,155.087,39.222
		L155.087,39.222z M154.107,39.26c0-0.258-0.021-0.496-0.064-0.713c-0.042-0.216-0.109-0.4-0.202-0.555
		c-0.092-0.154-0.209-0.273-0.352-0.36s-0.314-0.131-0.514-0.131c-0.121,0-0.245,0.017-0.369,0.052
		c-0.124,0.033-0.254,0.092-0.388,0.171c-0.135,0.081-0.277,0.188-0.425,0.32c-0.149,0.132-0.309,0.297-0.476,0.493v2.392
		c0.175,0.065,0.362,0.117,0.555,0.154c0.196,0.038,0.386,0.057,0.574,0.057c0.518,0,0.924-0.156,1.219-0.47
		C153.96,40.36,154.107,39.889,154.107,39.26L154.107,39.26z M165.086,41.775l-0.02-0.664c-0.301,0.266-0.608,0.458-0.919,0.575
		c-0.31,0.119-0.636,0.178-0.978,0.178c-0.316,0-0.587-0.037-0.811-0.109c-0.224-0.072-0.408-0.171-0.553-0.297
		c-0.145-0.126-0.252-0.275-0.32-0.444c-0.068-0.171-0.102-0.355-0.102-0.555c0-0.494,0.207-0.882,0.619-1.162
		c0.414-0.28,1.025-0.421,1.833-0.421h1.148v-0.431c0-0.292-0.105-0.525-0.314-0.701c-0.211-0.174-0.531-0.263-0.96-0.263
		c-0.313,0-0.621,0.032-0.924,0.094s-0.616,0.151-0.939,0.264v-0.771c0.12-0.039,0.256-0.077,0.404-0.114
		c0.148-0.038,0.307-0.072,0.472-0.102c0.164-0.028,0.337-0.052,0.518-0.07s0.361-0.027,0.545-0.027
		c0.335,0,0.636,0.032,0.903,0.097c0.269,0.067,0.497,0.166,0.681,0.3c0.186,0.134,0.33,0.303,0.427,0.506
		c0.1,0.203,0.149,0.442,0.149,0.717v3.398h-0.859V41.775z M164.983,39.53h-1.219c-0.239,0-0.444,0.022-0.617,0.064
		c-0.173,0.043-0.314,0.104-0.423,0.183c-0.111,0.077-0.192,0.173-0.247,0.282c-0.052,0.111-0.079,0.233-0.079,0.37
		c0,0.095,0.017,0.186,0.049,0.273c0.034,0.087,0.086,0.164,0.16,0.231c0.073,0.067,0.169,0.119,0.286,0.159
		c0.118,0.039,0.261,0.059,0.431,0.059c0.221,0,0.472-0.06,0.759-0.179c0.284-0.119,0.585-0.308,0.901-0.567V39.53H164.983z"/>
</g>
</svg>
