<?xml version="1.0" encoding="iso-8859-1"?>
<!-- Generator: Adobe Illustrator 21.0.0, SVG Export Plug-In . SVG Version: 6.00 Build 0)  -->
<svg version="1.1" id="Layer_1" xmlns="http://www.w3.org/2000/svg" xmlns:xlink="http://www.w3.org/1999/xlink" x="0px" y="0px"
	 viewBox="0 0 17 27" style="enable-background:new 0 0 17 27;" xml:space="preserve">
<g style="opacity:0.6;">
	<path style="fill:#FFFFFF;" d="M8.5,27C3.813,27,0,23.187,0,18.5v-10C0,3.813,3.813,0,8.5,0S17,3.813,17,8.5v10
		C17,23.187,13.187,27,8.5,27z M8.5,1C4.364,1,1,4.364,1,8.5v10C1,22.636,4.364,26,8.5,26c4.136,0,7.5-3.364,7.5-7.5v-10
		C16,4.364,12.636,1,8.5,1z"/>
</g>
<path style="fill:#FFFFFF;" d="M8.5,11.833L8.5,11.833c-0.642,0-1.167-0.525-1.167-1.167v-3C7.333,7.025,7.858,6.5,8.5,6.5h0
	c0.642,0,1.167,0.525,1.167,1.167v3C9.667,11.308,9.142,11.833,8.5,11.833z"/>
</svg>
