<?xml version="1.0" encoding="iso-8859-1"?>
<!-- Generator: Adobe Illustrator 21.0.0, SVG Export Plug-In . SVG Version: 6.00 Build 0)  -->
<svg version="1.1" id="Twitter_w_x2F__circle" xmlns="http://www.w3.org/2000/svg" xmlns:xlink="http://www.w3.org/1999/xlink"
	 x="0px" y="0px" viewBox="0 0 9.215 7.491" style="enable-background:new 0 0 9.215 7.491;" xml:space="preserve">
<path style="fill:#FFFFFF;" d="M8.272,1.866C8.276,1.948,8.277,2.03,8.277,2.11c0,2.5-1.901,5.381-5.379,5.381
	C1.83,7.491,0.836,7.179,0,6.641c0.147,0.018,0.298,0.025,0.451,0.025c0.886,0,1.701-0.301,2.348-0.809
	C1.972,5.841,1.274,5.295,1.033,4.545c0.115,0.021,0.233,0.033,0.355,0.033c0.172,0,0.34-0.023,0.498-0.066
	C1.021,4.338,0.369,3.574,0.369,2.658V2.635c0.255,0.141,0.547,0.227,0.857,0.237c-0.508-0.34-0.841-0.918-0.841-1.575
	c0-0.346,0.093-0.672,0.256-0.951C1.574,1.49,2.966,2.242,4.538,2.323C4.505,2.184,4.489,2.04,4.489,1.891
	C4.489,0.848,5.335,0,6.38,0c0.543,0,1.035,0.23,1.38,0.598c0.431-0.086,0.835-0.242,1.2-0.459C8.819,0.58,8.52,0.951,8.129,1.186
	c0.383-0.047,0.747-0.148,1.086-0.299C8.962,1.266,8.641,1.6,8.272,1.866z"/>
</svg>
