<?xml version="1.0" encoding="iso-8859-1"?>
<!-- Generator: Adobe Illustrator 21.0.0, SVG Export Plug-In . SVG Version: 6.00 Build 0)  -->
<svg version="1.1" id="VK_w_x2F__circle" xmlns="http://www.w3.org/2000/svg" xmlns:xlink="http://www.w3.org/1999/xlink" x="0px"
	 y="0px" viewBox="0 0 10.496 6.001" style="enable-background:new 0 0 10.496 6.001;" xml:space="preserve">
<path style="fill:#FFFFFF;" d="M9.342,4.205c0,0,0.849,0.838,1.058,1.227c0.006,0.008,0.009,0.016,0.011,0.02
	c0.085,0.143,0.105,0.254,0.063,0.337c-0.07,0.138-0.31,0.206-0.392,0.212c0,0-1.458,0-1.5,0c-0.104,0-0.322-0.027-0.586-0.209
	C7.793,5.65,7.593,5.417,7.398,5.19C7.107,4.852,6.855,4.56,6.601,4.56c-0.032,0-0.065,0.005-0.095,0.015
	C6.314,4.637,6.068,4.911,6.068,5.641C6.068,5.869,5.888,6,5.761,6c0,0-0.655,0-0.687,0C4.84,6,3.621,5.918,2.541,4.779
	C1.219,3.384,0.029,0.586,0.019,0.56c-0.075-0.181,0.08-0.278,0.249-0.278h1.515c0.202,0,0.268,0.123,0.314,0.232
	c0.054,0.127,0.252,0.632,0.577,1.2c0.527,0.926,0.85,1.302,1.109,1.302c0.049,0,0.094-0.013,0.139-0.036
	c0.338-0.188,0.275-1.393,0.26-1.643c0-0.047-0.001-0.539-0.174-0.775c-0.124-0.171-0.335-0.236-0.463-0.26
	c0.033-0.049,0.107-0.124,0.199-0.169C3.976,0.017,4.394,0,4.809,0H5.04c0.45,0.006,0.566,0.035,0.729,0.076
	c0.33,0.079,0.337,0.292,0.308,1.021C6.068,1.304,6.059,1.538,6.059,1.814c0,0.06-0.003,0.124-0.003,0.192
	c-0.01,0.371-0.022,0.792,0.24,0.965C6.33,2.992,6.369,3.004,6.41,3.004c0.091,0,0.365,0,1.107-1.273
	c0.325-0.562,0.577-1.225,0.595-1.274C8.127,0.431,8.171,0.351,8.223,0.32c0.041-0.024,0.096-0.029,0.124-0.029h1.781
	c0.194,0,0.327,0.029,0.352,0.104c0.044,0.119-0.008,0.482-0.821,1.583C9.522,2.16,9.401,2.319,9.296,2.457
	C8.559,3.423,8.559,3.472,9.342,4.205z"/>
</svg>
